<mxfile host="app.diagrams.net" modified="2023-12-27T15:58:29.200Z" agent="Mozilla/5.0 (Windows NT 10.0; Win64; x64) AppleWebKit/537.36 (KHTML, like Gecko) Chrome/120.0.0.0 Safari/537.36" etag="oAAWfgsmSVusAtd2b1lW" version="22.1.11" type="github" pages="2">
  <diagram name="第 1 页" id="oYIk5BusF1NAlf0CJSbv">
    <mxGraphModel dx="1434" dy="780" grid="1" gridSize="10" guides="1" tooltips="1" connect="1" arrows="1" fold="1" page="1" pageScale="1" pageWidth="827" pageHeight="1169" math="0" shadow="0">
      <root>
        <mxCell id="0" />
        <mxCell id="1" parent="0" />
        <mxCell id="gwE55hDR1Z42-t-cbktl-14" value="" style="group" vertex="1" connectable="0" parent="1">
          <mxGeometry x="220" y="170" width="416" height="266" as="geometry" />
        </mxCell>
        <mxCell id="gwE55hDR1Z42-t-cbktl-1" value="" style="rounded=0;whiteSpace=wrap;html=1;" vertex="1" parent="gwE55hDR1Z42-t-cbktl-14">
          <mxGeometry width="416" height="266" as="geometry" />
        </mxCell>
        <mxCell id="gwE55hDR1Z42-t-cbktl-12" value="&lt;font style=&quot;font-size: 14px;&quot;&gt;系统框图&lt;/font&gt;" style="text;html=1;strokeColor=none;fillColor=none;align=center;verticalAlign=middle;whiteSpace=wrap;rounded=0;" vertex="1" parent="gwE55hDR1Z42-t-cbktl-14">
          <mxGeometry width="70" height="26.95945945945946" as="geometry" />
        </mxCell>
        <mxCell id="gwE55hDR1Z42-t-cbktl-3" value="&lt;font style=&quot;font-size: 18px;&quot;&gt;业务数据请求模块&lt;br&gt;&lt;br&gt;&lt;br&gt;&lt;/font&gt;" style="rounded=1;whiteSpace=wrap;html=1;" vertex="1" parent="1">
          <mxGeometry x="244" y="216" width="170" height="104" as="geometry" />
        </mxCell>
        <mxCell id="gwE55hDR1Z42-t-cbktl-4" value="&lt;font style=&quot;font-size: 18px;&quot;&gt;脱敏代理&lt;/font&gt;" style="rounded=1;whiteSpace=wrap;html=1;" vertex="1" parent="1">
          <mxGeometry x="254" y="273" width="150" height="30" as="geometry" />
        </mxCell>
        <mxCell id="gwE55hDR1Z42-t-cbktl-5" value="" style="rounded=0;whiteSpace=wrap;html=1;" vertex="1" parent="1">
          <mxGeometry x="440" y="216" width="180" height="200" as="geometry" />
        </mxCell>
        <mxCell id="gwE55hDR1Z42-t-cbktl-6" value="&lt;font style=&quot;font-size: 18px;&quot;&gt;脱敏模型&lt;/font&gt;" style="rounded=1;whiteSpace=wrap;html=1;" vertex="1" parent="1">
          <mxGeometry x="450" y="376" width="160" height="30" as="geometry" />
        </mxCell>
        <mxCell id="gwE55hDR1Z42-t-cbktl-7" value="&lt;font style=&quot;font-size: 14px;&quot;&gt;脱敏平台&lt;/font&gt;" style="text;html=1;strokeColor=none;fillColor=none;align=center;verticalAlign=middle;whiteSpace=wrap;rounded=0;" vertex="1" parent="1">
          <mxGeometry x="440" y="216" width="60" height="30" as="geometry" />
        </mxCell>
        <mxCell id="gwE55hDR1Z42-t-cbktl-8" value="&lt;font style=&quot;font-size: 18px;&quot;&gt;感知&lt;br&gt;计算&lt;br&gt;模块&lt;/font&gt;" style="rounded=1;whiteSpace=wrap;html=1;" vertex="1" parent="1">
          <mxGeometry x="450" y="256" width="60" height="110" as="geometry" />
        </mxCell>
        <mxCell id="gwE55hDR1Z42-t-cbktl-9" value="&lt;font style=&quot;font-size: 18px;&quot;&gt;脱敏决策执行模块&lt;/font&gt;" style="rounded=1;whiteSpace=wrap;html=1;" vertex="1" parent="1">
          <mxGeometry x="520" y="256" width="90" height="50" as="geometry" />
        </mxCell>
        <mxCell id="gwE55hDR1Z42-t-cbktl-10" value="&lt;font style=&quot;font-size: 18px;&quot;&gt;模型应用模块&lt;/font&gt;" style="rounded=1;whiteSpace=wrap;html=1;" vertex="1" parent="1">
          <mxGeometry x="520" y="316" width="90" height="50" as="geometry" />
        </mxCell>
        <mxCell id="gwE55hDR1Z42-t-cbktl-11" value="&lt;font style=&quot;font-size: 18px;&quot;&gt;数据源(数据库)&lt;/font&gt;" style="rounded=1;whiteSpace=wrap;html=1;" vertex="1" parent="1">
          <mxGeometry x="244" y="360" width="170" height="56" as="geometry" />
        </mxCell>
      </root>
    </mxGraphModel>
  </diagram>
  <diagram id="jn01-PwEdhdniqU8sZls" name="第 2 页">
    <mxGraphModel dx="1434" dy="780" grid="1" gridSize="10" guides="1" tooltips="1" connect="1" arrows="1" fold="1" page="1" pageScale="1" pageWidth="827" pageHeight="1169" math="0" shadow="0">
      <root>
        <mxCell id="0" />
        <mxCell id="1" parent="0" />
        <mxCell id="ChdMq25TbcDmrNKsyZCV-17" value="" style="rounded=0;whiteSpace=wrap;html=1;" vertex="1" parent="1">
          <mxGeometry x="176" y="140" width="460" height="296" as="geometry" />
        </mxCell>
        <mxCell id="ChdMq25TbcDmrNKsyZCV-16" style="edgeStyle=orthogonalEdgeStyle;rounded=0;orthogonalLoop=1;jettySize=auto;html=1;" edge="1" parent="1" source="ChdMq25TbcDmrNKsyZCV-2" target="ChdMq25TbcDmrNKsyZCV-11">
          <mxGeometry relative="1" as="geometry" />
        </mxCell>
        <mxCell id="ChdMq25TbcDmrNKsyZCV-2" value="&lt;font style=&quot;font-size: 18px;&quot;&gt;业务数据请求模块&lt;br&gt;&lt;br&gt;&lt;br&gt;&lt;/font&gt;" style="rounded=1;whiteSpace=wrap;html=1;" vertex="1" parent="1">
          <mxGeometry x="200" y="200" width="160" height="90" as="geometry" />
        </mxCell>
        <mxCell id="ChdMq25TbcDmrNKsyZCV-3" value="&lt;font style=&quot;font-size: 18px;&quot;&gt;脱敏代理&lt;/font&gt;" style="rounded=1;whiteSpace=wrap;html=1;" vertex="1" parent="1">
          <mxGeometry x="205" y="250" width="150" height="30" as="geometry" />
        </mxCell>
        <mxCell id="ChdMq25TbcDmrNKsyZCV-5" value="" style="rounded=0;whiteSpace=wrap;html=1;" vertex="1" parent="1">
          <mxGeometry x="430" y="200" width="180" height="200" as="geometry" />
        </mxCell>
        <mxCell id="ChdMq25TbcDmrNKsyZCV-4" value="&lt;font style=&quot;font-size: 18px;&quot;&gt;脱敏模型&lt;/font&gt;" style="rounded=1;whiteSpace=wrap;html=1;" vertex="1" parent="1">
          <mxGeometry x="440" y="360" width="160" height="30" as="geometry" />
        </mxCell>
        <mxCell id="ChdMq25TbcDmrNKsyZCV-6" value="&lt;font style=&quot;font-size: 14px;&quot;&gt;脱敏平台&lt;/font&gt;" style="text;html=1;strokeColor=none;fillColor=none;align=center;verticalAlign=middle;whiteSpace=wrap;rounded=0;" vertex="1" parent="1">
          <mxGeometry x="430" y="200" width="60" height="30" as="geometry" />
        </mxCell>
        <mxCell id="ChdMq25TbcDmrNKsyZCV-7" value="&lt;font style=&quot;font-size: 18px;&quot;&gt;感知&lt;br&gt;计算&lt;br&gt;模块&lt;/font&gt;" style="rounded=1;whiteSpace=wrap;html=1;" vertex="1" parent="1">
          <mxGeometry x="440" y="240" width="60" height="110" as="geometry" />
        </mxCell>
        <mxCell id="ChdMq25TbcDmrNKsyZCV-8" value="&lt;font style=&quot;font-size: 18px;&quot;&gt;脱敏决策执行模块&lt;/font&gt;" style="rounded=1;whiteSpace=wrap;html=1;" vertex="1" parent="1">
          <mxGeometry x="510" y="240" width="90" height="50" as="geometry" />
        </mxCell>
        <mxCell id="ChdMq25TbcDmrNKsyZCV-9" value="&lt;font style=&quot;font-size: 18px;&quot;&gt;模型应用模块&lt;/font&gt;" style="rounded=1;whiteSpace=wrap;html=1;" vertex="1" parent="1">
          <mxGeometry x="510" y="300" width="90" height="50" as="geometry" />
        </mxCell>
        <mxCell id="ChdMq25TbcDmrNKsyZCV-11" value="&lt;font style=&quot;font-size: 18px;&quot;&gt;数据源(数据库)&lt;/font&gt;" style="rounded=1;whiteSpace=wrap;html=1;" vertex="1" parent="1">
          <mxGeometry x="200" y="340" width="160" height="50" as="geometry" />
        </mxCell>
        <mxCell id="ChdMq25TbcDmrNKsyZCV-18" value="&lt;font style=&quot;font-size: 14px;&quot;&gt;系统框图&lt;/font&gt;" style="text;html=1;strokeColor=none;fillColor=none;align=center;verticalAlign=middle;whiteSpace=wrap;rounded=0;" vertex="1" parent="1">
          <mxGeometry x="176" y="140" width="60" height="30" as="geometry" />
        </mxCell>
        <mxCell id="ChdMq25TbcDmrNKsyZCV-19" value="" style="endArrow=classic;startArrow=classic;html=1;rounded=0;startFill=1;endFill=1;entryX=0.011;entryY=0.33;entryDx=0;entryDy=0;entryPerimeter=0;" edge="1" parent="1" target="ChdMq25TbcDmrNKsyZCV-5">
          <mxGeometry width="50" height="50" relative="1" as="geometry">
            <mxPoint x="352" y="268" as="sourcePoint" />
            <mxPoint x="433" y="271" as="targetPoint" />
          </mxGeometry>
        </mxCell>
      </root>
    </mxGraphModel>
  </diagram>
</mxfile>
